<svg xmlns="http://www.w3.org/2000/svg" xmlns:xlink="http://www.w3.org/1999/xlink" width="145" zoomAndPan="magnify" viewBox="0 0 108.75 37.5" height="50" preserveAspectRatio="xMidYMid meet" version="1.0"><defs><g/><clipPath id="d8cde773d2"><path d="M 1 14 L 44 14 L 44 37 L 1 37 Z M 1 14 " clip-rule="nonzero"/></clipPath><clipPath id="02ae55f385"><path d="M 43.429688 14.835938 C 30.726562 24.207031 3.992188 37.347656 1.753906 20.667969 C 0.574219 27.882812 9.136719 35.226562 29.59375 25.65625 L 32.371094 36.367188 L 34.417969 33.011719 L 35.015625 22.527344 L 42.816406 17.40625 C 44.121094 16.609375 44.144531 15.542969 43.429688 14.835938 Z M 43.429688 14.835938 " clip-rule="evenodd"/></clipPath><linearGradient x1="111.790276" gradientTransform="matrix(0.390554, 0, 0, 0.39289, 1.646601, 1.569638)" y1="42.596578" x2="-5.419026" gradientUnits="userSpaceOnUse" y2="82.135115" id="b49983da20"><stop stop-opacity="1" stop-color="rgb(10.198975%, 52.198792%, 97.299194%)" offset="0"/><stop stop-opacity="1" stop-color="rgb(10.198975%, 52.198792%, 97.299194%)" offset="0.125"/><stop stop-opacity="1" stop-color="rgb(10.198975%, 52.198792%, 97.299194%)" offset="0.145803"/><stop stop-opacity="1" stop-color="rgb(10.198975%, 52.198792%, 97.299194%)" offset="0.1875"/><stop stop-opacity="1" stop-color="rgb(10.192871%, 52.241516%, 97.299194%)" offset="0.203125"/><stop stop-opacity="1" stop-color="rgb(10.166931%, 52.41394%, 97.299194%)" offset="0.210938"/><stop stop-opacity="1" stop-color="rgb(10.128784%, 52.671814%, 97.299194%)" offset="0.21875"/><stop stop-opacity="1" stop-color="rgb(10.092163%, 52.931213%, 97.299194%)" offset="0.226562"/><stop stop-opacity="1" stop-color="rgb(10.054016%, 53.189087%, 97.299194%)" offset="0.234375"/><stop stop-opacity="1" stop-color="rgb(10.015869%, 53.448486%, 97.299194%)" offset="0.242188"/><stop stop-opacity="1" stop-color="rgb(9.977722%, 53.70636%, 97.299194%)" offset="0.25"/><stop stop-opacity="1" stop-color="rgb(9.939575%, 53.964233%, 97.299194%)" offset="0.257812"/><stop stop-opacity="1" stop-color="rgb(9.902954%, 54.223633%, 97.299194%)" offset="0.265625"/><stop stop-opacity="1" stop-color="rgb(9.864807%, 54.481506%, 97.299194%)" offset="0.273438"/><stop stop-opacity="1" stop-color="rgb(9.82666%, 54.740906%, 97.299194%)" offset="0.28125"/><stop stop-opacity="1" stop-color="rgb(9.788513%, 54.998779%, 97.299194%)" offset="0.289063"/><stop stop-opacity="1" stop-color="rgb(9.750366%, 55.256653%, 97.299194%)" offset="0.296875"/><stop stop-opacity="1" stop-color="rgb(9.713745%, 55.516052%, 97.299194%)" offset="0.304688"/><stop stop-opacity="1" stop-color="rgb(9.675598%, 55.773926%, 97.299194%)" offset="0.3125"/><stop stop-opacity="1" stop-color="rgb(9.637451%, 56.033325%, 97.299194%)" offset="0.320313"/><stop stop-opacity="1" stop-color="rgb(9.599304%, 56.291199%, 97.299194%)" offset="0.328125"/><stop stop-opacity="1" stop-color="rgb(9.561157%, 56.549072%, 97.299194%)" offset="0.335938"/><stop stop-opacity="1" stop-color="rgb(9.524536%, 56.808472%, 97.299194%)" offset="0.34375"/><stop stop-opacity="1" stop-color="rgb(9.486389%, 57.066345%, 97.299194%)" offset="0.351563"/><stop stop-opacity="1" stop-color="rgb(9.448242%, 57.325745%, 97.299194%)" offset="0.359375"/><stop stop-opacity="1" stop-color="rgb(9.410095%, 57.583618%, 97.299194%)" offset="0.367188"/><stop stop-opacity="1" stop-color="rgb(9.373474%, 57.841492%, 97.299194%)" offset="0.375"/><stop stop-opacity="1" stop-color="rgb(9.335327%, 58.100891%, 97.299194%)" offset="0.382812"/><stop stop-opacity="1" stop-color="rgb(9.29718%, 58.358765%, 97.299194%)" offset="0.390625"/><stop stop-opacity="1" stop-color="rgb(9.259033%, 58.618164%, 97.299194%)" offset="0.398438"/><stop stop-opacity="1" stop-color="rgb(9.220886%, 58.876038%, 97.299194%)" offset="0.40625"/><stop stop-opacity="1" stop-color="rgb(9.184265%, 59.133911%, 97.299194%)" offset="0.414062"/><stop stop-opacity="1" stop-color="rgb(9.146118%, 59.393311%, 97.299194%)" offset="0.421875"/><stop stop-opacity="1" stop-color="rgb(9.107971%, 59.651184%, 97.299194%)" offset="0.429688"/><stop stop-opacity="1" stop-color="rgb(9.069824%, 59.910583%, 97.299194%)" offset="0.4375"/><stop stop-opacity="1" stop-color="rgb(9.031677%, 60.168457%, 97.299194%)" offset="0.445313"/><stop stop-opacity="1" stop-color="rgb(9.00116%, 60.406494%, 97.299194%)" offset="0.453125"/><stop stop-opacity="1" stop-color="rgb(8.970642%, 60.704041%, 97.299194%)" offset="0.46875"/><stop stop-opacity="1" stop-color="rgb(8.935547%, 61.083984%, 97.299194%)" offset="0.484375"/><stop stop-opacity="1" stop-color="rgb(8.898926%, 61.463928%, 97.299194%)" offset="0.5"/><stop stop-opacity="1" stop-color="rgb(8.863831%, 61.843872%, 97.299194%)" offset="0.515625"/><stop stop-opacity="1" stop-color="rgb(8.828735%, 62.223816%, 97.299194%)" offset="0.53125"/><stop stop-opacity="1" stop-color="rgb(8.79364%, 62.60376%, 97.299194%)" offset="0.546875"/><stop stop-opacity="1" stop-color="rgb(8.758545%, 62.983704%, 97.299194%)" offset="0.5625"/><stop stop-opacity="1" stop-color="rgb(8.72345%, 63.363647%, 97.299194%)" offset="0.578125"/><stop stop-opacity="1" stop-color="rgb(8.686829%, 63.743591%, 97.299194%)" offset="0.59375"/><stop stop-opacity="1" stop-color="rgb(8.651733%, 64.123535%, 97.299194%)" offset="0.609375"/><stop stop-opacity="1" stop-color="rgb(8.616638%, 64.503479%, 97.299194%)" offset="0.625"/><stop stop-opacity="1" stop-color="rgb(8.581543%, 64.883423%, 97.299194%)" offset="0.640625"/><stop stop-opacity="1" stop-color="rgb(8.546448%, 65.263367%, 97.299194%)" offset="0.65625"/><stop stop-opacity="1" stop-color="rgb(8.511353%, 65.643311%, 97.299194%)" offset="0.671875"/><stop stop-opacity="1" stop-color="rgb(8.474731%, 66.023254%, 97.299194%)" offset="0.6875"/><stop stop-opacity="1" stop-color="rgb(8.439636%, 66.403198%, 97.299194%)" offset="0.703125"/><stop stop-opacity="1" stop-color="rgb(8.404541%, 66.781616%, 97.299194%)" offset="0.71875"/><stop stop-opacity="1" stop-color="rgb(8.369446%, 67.16156%, 97.299194%)" offset="0.734375"/><stop stop-opacity="1" stop-color="rgb(8.334351%, 67.541504%, 97.299194%)" offset="0.75"/><stop stop-opacity="1" stop-color="rgb(8.299255%, 67.921448%, 97.299194%)" offset="0.765625"/><stop stop-opacity="1" stop-color="rgb(8.262634%, 68.301392%, 97.299194%)" offset="0.78125"/><stop stop-opacity="1" stop-color="rgb(8.227539%, 68.681335%, 97.299194%)" offset="0.796875"/><stop stop-opacity="1" stop-color="rgb(8.204651%, 68.934631%, 97.299194%)" offset="0.8125"/><stop stop-opacity="1" stop-color="rgb(8.198547%, 68.998718%, 97.299194%)" offset="0.854197"/><stop stop-opacity="1" stop-color="rgb(8.198547%, 68.998718%, 97.299194%)" offset="0.875"/><stop stop-opacity="1" stop-color="rgb(8.198547%, 68.998718%, 97.299194%)" offset="1"/></linearGradient><clipPath id="f5b99632d0"><path d="M 1 1 L 29 1 L 29 27 L 1 27 Z M 1 1 " clip-rule="nonzero"/></clipPath><clipPath id="01dba061b0"><path d="M 28.394531 7.5 C 22.402344 -1.871094 9.175781 0.773438 4 9.097656 C 1.660156 12.859375 1.085938 17.3125 2.597656 20.789062 C 5.777344 28.109375 14.8125 26.835938 20.457031 23.269531 C 14.394531 26.886719 3.722656 27.046875 3.722656 16.914062 C 3.722656 5.914062 18.605469 -3.347656 28.394531 7.5 Z M 28.394531 7.5 " clip-rule="evenodd"/></clipPath><linearGradient x1="59.128999" gradientTransform="matrix(0.390554, 0, 0, 0.39289, 1.646601, 1.569638)" y1="-10.326433" x2="3.973768" gradientUnits="userSpaceOnUse" y2="71.209493" id="c40e3dbb75"><stop stop-opacity="1" stop-color="rgb(100%, 74.899292%, 27.799988%)" offset="0"/><stop stop-opacity="1" stop-color="rgb(100%, 74.899292%, 27.799988%)" offset="0.125"/><stop stop-opacity="1" stop-color="rgb(100%, 74.859619%, 27.784729%)" offset="0.1875"/><stop stop-opacity="1" stop-color="rgb(100%, 74.667358%, 27.708435%)" offset="0.195312"/><stop stop-opacity="1" stop-color="rgb(100%, 74.359131%, 27.587891%)" offset="0.203125"/><stop stop-opacity="1" stop-color="rgb(100%, 74.050903%, 27.467346%)" offset="0.210938"/><stop stop-opacity="1" stop-color="rgb(100%, 73.74115%, 27.346802%)" offset="0.21875"/><stop stop-opacity="1" stop-color="rgb(100%, 73.432922%, 27.226257%)" offset="0.226563"/><stop stop-opacity="1" stop-color="rgb(100%, 73.124695%, 27.105713%)" offset="0.234375"/><stop stop-opacity="1" stop-color="rgb(100%, 72.816467%, 26.985168%)" offset="0.242188"/><stop stop-opacity="1" stop-color="rgb(100%, 72.50824%, 26.863098%)" offset="0.25"/><stop stop-opacity="1" stop-color="rgb(100%, 72.200012%, 26.742554%)" offset="0.257812"/><stop stop-opacity="1" stop-color="rgb(100%, 71.891785%, 26.622009%)" offset="0.265625"/><stop stop-opacity="1" stop-color="rgb(100%, 71.583557%, 26.501465%)" offset="0.273438"/><stop stop-opacity="1" stop-color="rgb(100%, 71.273804%, 26.38092%)" offset="0.28125"/><stop stop-opacity="1" stop-color="rgb(100%, 70.965576%, 26.260376%)" offset="0.289062"/><stop stop-opacity="1" stop-color="rgb(100%, 70.657349%, 26.139832%)" offset="0.296875"/><stop stop-opacity="1" stop-color="rgb(100%, 70.349121%, 26.019287%)" offset="0.304688"/><stop stop-opacity="1" stop-color="rgb(100%, 70.040894%, 25.898743%)" offset="0.3125"/><stop stop-opacity="1" stop-color="rgb(100%, 69.732666%, 25.778198%)" offset="0.320312"/><stop stop-opacity="1" stop-color="rgb(100%, 69.424438%, 25.657654%)" offset="0.328125"/><stop stop-opacity="1" stop-color="rgb(100%, 69.116211%, 25.537109%)" offset="0.335938"/><stop stop-opacity="1" stop-color="rgb(100%, 68.806458%, 25.416565%)" offset="0.34375"/><stop stop-opacity="1" stop-color="rgb(100%, 68.49823%, 25.296021%)" offset="0.351562"/><stop stop-opacity="1" stop-color="rgb(100%, 68.190002%, 25.175476%)" offset="0.359375"/><stop stop-opacity="1" stop-color="rgb(100%, 67.881775%, 25.054932%)" offset="0.367188"/><stop stop-opacity="1" stop-color="rgb(100%, 67.573547%, 24.934387%)" offset="0.375"/><stop stop-opacity="1" stop-color="rgb(100%, 67.26532%, 24.813843%)" offset="0.382812"/><stop stop-opacity="1" stop-color="rgb(100%, 66.957092%, 24.693298%)" offset="0.390625"/><stop stop-opacity="1" stop-color="rgb(100%, 66.647339%, 24.572754%)" offset="0.397986"/><stop stop-opacity="1" stop-color="rgb(100%, 66.493225%, 24.513245%)" offset="0.398438"/><stop stop-opacity="1" stop-color="rgb(100%, 66.339111%, 24.452209%)" offset="0.40625"/><stop stop-opacity="1" stop-color="rgb(100%, 66.030884%, 24.331665%)" offset="0.414063"/><stop stop-opacity="1" stop-color="rgb(100%, 65.722656%, 24.211121%)" offset="0.421875"/><stop stop-opacity="1" stop-color="rgb(100%, 65.414429%, 24.090576%)" offset="0.429688"/><stop stop-opacity="1" stop-color="rgb(100%, 65.106201%, 23.970032%)" offset="0.4375"/><stop stop-opacity="1" stop-color="rgb(100%, 64.797974%, 23.849487%)" offset="0.445313"/><stop stop-opacity="1" stop-color="rgb(100%, 64.489746%, 23.728943%)" offset="0.453125"/><stop stop-opacity="1" stop-color="rgb(100%, 64.179993%, 23.608398%)" offset="0.460938"/><stop stop-opacity="1" stop-color="rgb(100%, 63.871765%, 23.487854%)" offset="0.46875"/><stop stop-opacity="1" stop-color="rgb(100%, 63.563538%, 23.36731%)" offset="0.476563"/><stop stop-opacity="1" stop-color="rgb(100%, 63.25531%, 23.246765%)" offset="0.484375"/><stop stop-opacity="1" stop-color="rgb(100%, 62.947083%, 23.126221%)" offset="0.492188"/><stop stop-opacity="1" stop-color="rgb(100%, 62.638855%, 23.005676%)" offset="0.5"/><stop stop-opacity="1" stop-color="rgb(100%, 62.330627%, 22.885132%)" offset="0.507812"/><stop stop-opacity="1" stop-color="rgb(100%, 62.0224%, 22.764587%)" offset="0.515625"/><stop stop-opacity="1" stop-color="rgb(100%, 61.712646%, 22.644043%)" offset="0.523438"/><stop stop-opacity="1" stop-color="rgb(100%, 61.404419%, 22.523499%)" offset="0.53125"/><stop stop-opacity="1" stop-color="rgb(100%, 61.096191%, 22.402954%)" offset="0.539062"/><stop stop-opacity="1" stop-color="rgb(100%, 60.787964%, 22.28241%)" offset="0.546875"/><stop stop-opacity="1" stop-color="rgb(100%, 60.479736%, 22.161865%)" offset="0.554688"/><stop stop-opacity="1" stop-color="rgb(100%, 60.171509%, 22.041321%)" offset="0.5625"/><stop stop-opacity="1" stop-color="rgb(100%, 59.863281%, 21.920776%)" offset="0.570312"/><stop stop-opacity="1" stop-color="rgb(100%, 59.553528%, 21.800232%)" offset="0.578125"/><stop stop-opacity="1" stop-color="rgb(100%, 59.2453%, 21.679688%)" offset="0.585938"/><stop stop-opacity="1" stop-color="rgb(100%, 58.937073%, 21.559143%)" offset="0.59375"/><stop stop-opacity="1" stop-color="rgb(100%, 58.628845%, 21.438599%)" offset="0.601562"/><stop stop-opacity="1" stop-color="rgb(100%, 58.320618%, 21.318054%)" offset="0.602014"/><stop stop-opacity="1" stop-color="rgb(100%, 58.166504%, 21.258545%)" offset="0.609375"/><stop stop-opacity="1" stop-color="rgb(100%, 58.01239%, 21.19751%)" offset="0.617188"/><stop stop-opacity="1" stop-color="rgb(100%, 57.704163%, 21.076965%)" offset="0.625"/><stop stop-opacity="1" stop-color="rgb(100%, 57.395935%, 20.956421%)" offset="0.632812"/><stop stop-opacity="1" stop-color="rgb(100%, 57.086182%, 20.835876%)" offset="0.640625"/><stop stop-opacity="1" stop-color="rgb(100%, 56.777954%, 20.715332%)" offset="0.648438"/><stop stop-opacity="1" stop-color="rgb(100%, 56.469727%, 20.594788%)" offset="0.65625"/><stop stop-opacity="1" stop-color="rgb(100%, 56.161499%, 20.474243%)" offset="0.664062"/><stop stop-opacity="1" stop-color="rgb(100%, 55.853271%, 20.353699%)" offset="0.671875"/><stop stop-opacity="1" stop-color="rgb(100%, 55.545044%, 20.233154%)" offset="0.679688"/><stop stop-opacity="1" stop-color="rgb(100%, 55.236816%, 20.11261%)" offset="0.6875"/><stop stop-opacity="1" stop-color="rgb(100%, 54.928589%, 19.992065%)" offset="0.695312"/><stop stop-opacity="1" stop-color="rgb(100%, 54.618835%, 19.871521%)" offset="0.703125"/><stop stop-opacity="1" stop-color="rgb(100%, 54.310608%, 19.750977%)" offset="0.710938"/><stop stop-opacity="1" stop-color="rgb(100%, 54.00238%, 19.630432%)" offset="0.71875"/><stop stop-opacity="1" stop-color="rgb(100%, 53.694153%, 19.509888%)" offset="0.726562"/><stop stop-opacity="1" stop-color="rgb(100%, 53.385925%, 19.389343%)" offset="0.734375"/><stop stop-opacity="1" stop-color="rgb(100%, 53.065491%, 19.264221%)" offset="0.75"/><stop stop-opacity="1" stop-color="rgb(100%, 52.89917%, 19.198608%)" offset="1"/></linearGradient></defs><path fill="#15b0f8" d="M 1.753906 20.667969 C 5.105469 30.113281 17.25 27.804688 27.277344 20.867188 L 18.617188 12.882812 L 22.417969 13.316406 L 32.4375 18.070312 C 34.441406 17.074219 36.449219 16.078125 38.453125 15.078125 C 42.25 12.496094 45.730469 15.628906 42.816406 17.40625 C 40.214844 19.113281 37.617188 20.820312 35.015625 22.527344 L 34.417969 33.011719 L 32.371094 36.367188 L 29.59375 25.65625 C 9.136719 35.226562 0.574219 27.882812 1.753906 20.667969 Z M 1.753906 20.667969 " fill-opacity="1" fill-rule="evenodd"/><path fill="#ff8731" d="M 20.457031 23.269531 C 14.8125 26.835938 5.777344 28.109375 2.597656 20.789062 C 1.085938 17.3125 1.660156 12.859375 4 9.097656 C 9.175781 0.773438 22.402344 -1.871094 28.394531 7.5 C 18.921875 -0.820312 4.8125 5.964844 5.121094 16.972656 C 5.246094 21.355469 7.941406 25.320312 13.421875 24.996094 C 15.597656 24.867188 18.097656 24.332031 20.457031 23.269531 Z M 20.457031 23.269531 " fill-opacity="1" fill-rule="evenodd"/><path fill="#ff8731" d="M 8.003906 21.441406 C 8.746094 19.15625 9.746094 16.660156 12.121094 16.097656 C 11.25 14.902344 10.097656 15.132812 8.867188 15.765625 C 9.53125 14.476562 10.753906 13.882812 12.175781 14.734375 C 12.09375 13.984375 11.011719 13.148438 10.136719 12.890625 C 11.402344 12.921875 12.488281 13.257812 13.066406 14.445312 C 13.277344 13.65625 13.117188 12.929688 12.90625 12.210938 C 13.847656 13.003906 14.457031 13.882812 14.152344 15.011719 C 15.457031 14.964844 16.535156 16.050781 16.726562 17.394531 C 16.316406 16.792969 15.527344 16.128906 14.554688 16.230469 C 15.492188 16.984375 15.738281 18 15.289062 19.273438 C 15.121094 18.070312 14.722656 17.03125 13.6875 16.460938 C 14.207031 17.957031 13.253906 18.714844 12.300781 19.148438 C 12.753906 18.128906 12.785156 17.675781 12.746094 16.542969 C 10.539062 17.335938 9.703125 19.59375 9.410156 22.445312 L 9.386719 22.445312 C 8.9375 22.078125 8.445312 21.898438 8.003906 21.441406 Z M 8.003906 21.441406 " fill-opacity="1" fill-rule="evenodd"/><path fill="#15b0f8" d="M 18.898438 22.957031 C 16.574219 23.265625 13.816406 22.96875 10.320312 21.644531 C 9.035156 21.246094 7.660156 21.175781 6.550781 21.402344 C 6.777344 21.71875 7.117188 22.148438 7.375 22.433594 C 8.453125 22.460938 9.625 22.480469 10.6875 22.777344 C 13.519531 23.574219 16.007812 24.433594 18.898438 22.957031 Z M 18.898438 22.957031 " fill-opacity="1" fill-rule="evenodd"/><path fill="#15b0f8" d="M 12.730469 24.320312 C 11.234375 23.578125 9.453125 23.148438 7.960938 22.972656 C 8.496094 23.457031 9.21875 23.957031 9.925781 24.226562 C 10.8125 24.386719 11.722656 24.472656 12.730469 24.320312 Z M 12.730469 24.320312 " fill-opacity="1" fill-rule="evenodd"/><path fill="#15b0f8" d="M 26.960938 27.222656 C 23.683594 30.300781 15.65625 32.269531 9.308594 30.488281 C 15.035156 31.761719 24.414062 29.160156 26.960938 27.222656 Z M 26.960938 27.222656 " fill-opacity="1" fill-rule="evenodd"/><g clip-path="url(#d8cde773d2)"><g clip-path="url(#02ae55f385)"><path fill="url(#b49983da20)" d="M 0.59375 14.835938 L 0.59375 37.007812 L 44.144531 37.007812 L 44.144531 14.835938 Z M 0.59375 14.835938 " fill-rule="nonzero"/></g></g><path fill="#ff8731" d="M 14.789062 25.09375 C 14.71875 23.5625 14.652344 21.878906 13.261719 21.132812 C 13.917969 20.601562 14.519531 20.898438 15.105469 21.429688 C 14.925781 20.621094 14.339844 20.113281 13.433594 20.375 C 13.585938 19.972656 14.304688 19.671875 14.824219 19.660156 C 14.121094 19.488281 13.476562 19.515625 12.984375 20.082031 C 12.980469 19.617188 13.175781 19.242188 13.394531 18.875 C 12.761719 19.171875 12.296875 19.566406 12.300781 20.234375 C 11.589844 20.015625 10.835938 20.457031 10.535156 21.167969 C 10.851562 20.898438 11.382812 20.648438 11.902344 20.847656 C 11.277344 21.125 10.992188 21.648438 11.054688 22.417969 C 11.324219 21.777344 11.695312 21.265625 12.347656 21.101562 C 11.84375 21.851562 12.257812 22.410156 12.722656 22.785156 C 12.617188 22.160156 12.667969 21.902344 12.855469 21.285156 C 13.945312 22.039062 14.082031 23.390625 13.839844 24.984375 C 14.15625 25.039062 14.46875 25.074219 14.789062 25.09375 Z M 14.789062 25.09375 " fill-opacity="1" fill-rule="evenodd"/><g clip-path="url(#f5b99632d0)"><g clip-path="url(#01dba061b0)"><path fill="url(#c40e3dbb75)" d="M 1.085938 0 L 1.085938 28.109375 L 28.394531 28.109375 L 28.394531 0 Z M 1.085938 0 " fill-rule="nonzero"/></g></g><g fill="#ff9436" fill-opacity="1"><g transform="translate(48.748754, 16.149272)"><g><path d="M 7.625 -5.640625 C 8.269531 -5.503906 8.785156 -5.1875 9.171875 -4.6875 C 9.554688 -4.195312 9.75 -3.632812 9.75 -3 C 9.75 -2.070312 9.425781 -1.335938 8.78125 -0.796875 C 8.132812 -0.265625 7.238281 0 6.09375 0 L 0.96875 0 L 0.96875 -11 L 5.921875 -11 C 7.035156 -11 7.910156 -10.742188 8.546875 -10.234375 C 9.179688 -9.722656 9.5 -9.03125 9.5 -8.15625 C 9.5 -7.5 9.328125 -6.957031 8.984375 -6.53125 C 8.648438 -6.101562 8.195312 -5.804688 7.625 -5.640625 Z M 3.65625 -6.546875 L 5.40625 -6.546875 C 5.84375 -6.546875 6.175781 -6.640625 6.40625 -6.828125 C 6.644531 -7.023438 6.765625 -7.3125 6.765625 -7.6875 C 6.765625 -8.070312 6.644531 -8.363281 6.40625 -8.5625 C 6.175781 -8.757812 5.84375 -8.859375 5.40625 -8.859375 L 3.65625 -8.859375 Z M 5.625 -2.15625 C 6.070312 -2.15625 6.414062 -2.257812 6.65625 -2.46875 C 6.90625 -2.675781 7.03125 -2.972656 7.03125 -3.359375 C 7.03125 -3.742188 6.898438 -4.046875 6.640625 -4.265625 C 6.390625 -4.484375 6.039062 -4.59375 5.59375 -4.59375 L 3.65625 -4.59375 L 3.65625 -2.15625 Z M 5.625 -2.15625 "/></g></g></g><g fill="#ff9436" fill-opacity="1"><g transform="translate(58.259738, 16.149272)"><g><path d="M 7.34375 0 L 3.65625 -4.859375 L 3.65625 0 L 0.96875 0 L 0.96875 -11 L 3.65625 -11 L 3.65625 -6.171875 L 7.3125 -11 L 10.46875 -11 L 6.203125 -5.609375 L 10.625 0 Z M 7.34375 0 "/></g></g></g><g fill="#ff9436" fill-opacity="1"><g transform="translate(68.366173, 16.149272)"><g><path d="M 0.515625 -5.515625 C 0.515625 -6.597656 0.75 -7.566406 1.21875 -8.421875 C 1.6875 -9.273438 2.34375 -9.9375 3.1875 -10.40625 C 4.03125 -10.882812 4.984375 -11.125 6.046875 -11.125 C 7.359375 -11.125 8.476562 -10.78125 9.40625 -10.09375 C 10.332031 -9.40625 10.953125 -8.460938 11.265625 -7.265625 L 8.328125 -7.265625 C 8.109375 -7.734375 7.796875 -8.085938 7.390625 -8.328125 C 6.984375 -8.566406 6.523438 -8.6875 6.015625 -8.6875 C 5.191406 -8.6875 4.523438 -8.394531 4.015625 -7.8125 C 3.503906 -7.238281 3.25 -6.472656 3.25 -5.515625 C 3.25 -4.554688 3.503906 -3.785156 4.015625 -3.203125 C 4.523438 -2.628906 5.191406 -2.34375 6.015625 -2.34375 C 6.523438 -2.34375 6.984375 -2.460938 7.390625 -2.703125 C 7.796875 -2.953125 8.109375 -3.304688 8.328125 -3.765625 L 11.265625 -3.765625 C 10.953125 -2.566406 10.332031 -1.625 9.40625 -0.9375 C 8.476562 -0.257812 7.359375 0.078125 6.046875 0.078125 C 4.984375 0.078125 4.03125 -0.15625 3.1875 -0.625 C 2.34375 -1.101562 1.6875 -1.765625 1.21875 -2.609375 C 0.75 -3.460938 0.515625 -4.429688 0.515625 -5.515625 Z M 0.515625 -5.515625 "/></g></g></g><g fill="#16b0f8" fill-opacity="1"><g transform="translate(48.748754, 30.51909)"><g><path d="M 8.890625 -11.015625 L 8.890625 -8.859375 L 5.984375 -8.859375 L 5.984375 0 L 3.296875 0 L 3.296875 -8.859375 L 0.375 -8.859375 L 0.375 -11.015625 Z M 8.890625 -11.015625 "/></g></g></g><g fill="#16b0f8" fill-opacity="1"><g transform="translate(57.200417, 30.51909)"><g><path d="M 6.59375 0 L 4.296875 -4.15625 L 3.65625 -4.15625 L 3.65625 0 L 0.96875 0 L 0.96875 -11.015625 L 5.46875 -11.015625 C 6.34375 -11.015625 7.082031 -10.863281 7.6875 -10.5625 C 8.300781 -10.257812 8.757812 -9.84375 9.0625 -9.3125 C 9.363281 -8.78125 9.515625 -8.191406 9.515625 -7.546875 C 9.515625 -6.816406 9.304688 -6.160156 8.890625 -5.578125 C 8.484375 -5.003906 7.878906 -4.597656 7.078125 -4.359375 L 9.609375 0 Z M 3.65625 -6.0625 L 5.3125 -6.0625 C 5.8125 -6.0625 6.179688 -6.179688 6.421875 -6.421875 C 6.671875 -6.660156 6.796875 -7 6.796875 -7.4375 C 6.796875 -7.851562 6.671875 -8.179688 6.421875 -8.421875 C 6.179688 -8.660156 5.8125 -8.78125 5.3125 -8.78125 L 3.65625 -8.78125 Z M 3.65625 -6.0625 "/></g></g></g><g fill="#16b0f8" fill-opacity="1"><g transform="translate(66.608589, 30.51909)"><g><path d="M 7.828125 -1.9375 L 3.71875 -1.9375 L 3.0625 0 L 0.25 0 L 4.234375 -11.015625 L 7.34375 -11.015625 L 11.328125 0 L 8.484375 0 Z M 7.140625 -4.015625 L 5.765625 -8.046875 L 4.421875 -4.015625 Z M 7.140625 -4.015625 "/></g></g></g><g fill="#16b0f8" fill-opacity="1"><g transform="translate(77.349603, 30.51909)"><g><path d="M 11.3125 -11.015625 L 7.40625 0 L 4.046875 0 L 0.140625 -11.015625 L 3 -11.015625 L 5.71875 -2.703125 L 8.46875 -11.015625 Z M 11.3125 -11.015625 "/></g></g></g><g fill="#16b0f8" fill-opacity="1"><g transform="translate(87.980852, 30.51909)"><g><path d="M 3.65625 -8.859375 L 3.65625 -6.640625 L 7.25 -6.640625 L 7.25 -4.5625 L 3.65625 -4.5625 L 3.65625 -2.15625 L 7.71875 -2.15625 L 7.71875 0 L 0.96875 0 L 0.96875 -11.015625 L 7.71875 -11.015625 L 7.71875 -8.859375 Z M 3.65625 -8.859375 "/></g></g></g><g fill="#16b0f8" fill-opacity="1"><g transform="translate(95.648491, 30.51909)"><g><path d="M 3.65625 -2.078125 L 7.171875 -2.078125 L 7.171875 0 L 0.96875 0 L 0.96875 -11.015625 L 3.65625 -11.015625 Z M 3.65625 -2.078125 "/></g></g></g></svg>